# xmcd CD database file generated by Grip 2.96
# 
# Track frame offsets:
#       150
#       20922
#       41644
#       63771
#       86518
#       98717
#       117804
#       128353
#       146858
#       164111
#       183246
# 
# Disc length: 2676 seconds
# 
# Revision: 0
# Processed by: cddbd v1.4PL0 Copyright (c) Steve Scherf et al.
# Submitted via: Grip 2.96
# 
DISCID=920a720b
DTITLE=Sade - Lovers Rock
DYEAR=1900
DGENRE=Blues
TTITLE0=By your side
TTITLE1=Flow
TTITLE2=King of sorrow
TTITLE3=Somebody already broke my heart
TTITLE4=All about our love
TTITLE5=Slave song
TTITLE6=The sweetest gift
TTITLE7=Every word
TTITLE8=Immigrant
TTITLE9=Lovers rock
TTITLE10=It's only love that gets you through
EXTD=ID3G:   0
EXTT0=
EXTT1=
EXTT2=
EXTT3=
EXTT4=
EXTT5=
EXTT6=
EXTT7=
EXTT8=
EXTT9=
EXTT10=
PLAYORDER=
